# xmcd
#
# Track frame offsets:
#       183
#       27683
#       48220
#       94895
#       109233
#       124758
#       161008
#       178420
#       196020
#       235120
#
# Disc length: 3352 seconds
#
# Revision: 1
# Processed by: cddbd v1.4PL0 Copyright (c) Steve Scherf et al.
# Submitted via: MusiCat 1.1
#
DISCID=860d160a
DTITLE=Jethro Tull - Live at the Lonestar
DYEAR=1993
DGENRE=
TTITLE0=Living In The Past
TTITLE1=my Sunday Feeling
TTITLE2=Thick As A  Brick
TTITLE3=So Much Trouble
TTITLE4=So far Untitled
TTITLE5=Farm On The Freeway
TTITLE6=Dammer For A Winer
TTITLE7=This Is Not Love
TTITLE8=Aqualung/ Slowdown
TTITLE9=Bouree
EXTD=1993\n\n\nRecorded live at the Lonestar Roadhouse NY on 26/4/1993
EXTT0=
EXTT1=
EXTT2=
EXTT3=
EXTT4=
EXTT5=
EXTT6=
EXTT7=
EXTT8=
EXTT9=
PLAYORDER=
